<svg width="502" height="700" viewBox="0 0 502 700" fill="none" xmlns="http://www.w3.org/2000/svg">
<path d="M50.4005 380.379C50.4005 389.343 45.6193 397.625 37.8536 402.109C30.0932 406.588 20.5309 406.588 12.7656 402.109C5.00518 397.624 0.223972 389.343 0.223972 380.379V149.886C0.244806 143.251 2.88543 136.891 7.5677 132.193C12.25 127.494 18.6041 124.839 25.2397 124.797H426.346C446.185 124.813 465.221 132.677 479.284 146.672C493.398 160.702 501.325 179.786 501.31 199.688V624.461C501.409 644.382 493.467 663.492 479.284 677.477C478.747 678.019 478.174 678.519 477.565 678.972C463.658 692.102 445.248 699.398 426.122 699.352H75.1889C55.2716 699.399 36.1476 691.529 22.0276 677.477C7.84491 663.493 -0.0977583 644.384 0.000908391 624.461V499.544C0.000908391 490.58 4.78211 482.298 12.5425 477.82C20.3081 473.335 29.8705 473.335 37.6305 477.82C45.3961 482.299 50.1774 490.58 50.1774 499.544V624.461C50.1774 631.107 52.8077 637.477 57.5004 642.174C62.1878 646.877 68.5473 649.534 75.1884 649.549H426.122C432.314 649.492 438.294 647.242 442.996 643.206C443.2 642.81 443.481 642.456 443.814 642.159C448.574 637.497 451.262 631.122 451.283 624.461V199.688C451.174 193.047 448.496 186.704 443.814 181.991C439.142 177.256 432.772 174.569 426.121 174.527H50.4008L50.4005 380.379ZM50.4005 440.562C50.4005 449.526 45.6193 457.807 37.8536 462.286C30.0932 466.771 20.5309 466.771 12.7656 462.286C5.00518 457.807 0.223972 449.526 0.223972 440.562V439.291C0.223972 430.328 5.00518 422.046 12.7656 417.567C20.5312 413.083 30.0936 413.083 37.8536 417.567C45.6192 422.046 50.4005 430.328 50.4005 439.291V440.562Z" fill="black"/>
<path d="M300.012 456.312C282.1 452.797 265.658 443.979 252.824 431C235.543 413.833 225.84 390.473 225.866 366.115C225.814 352.245 228.959 338.552 235.053 326.093C220.913 329.177 207.96 336.25 197.72 346.479C183.584 360.495 175.632 379.583 175.632 399.489C175.632 419.401 183.585 438.484 197.72 452.505C211.86 466.552 230.949 474.484 250.881 474.604C267.198 474.75 283.105 469.5 296.132 459.672C297.403 458.625 298.668 457.808 300.012 456.688L300.012 456.312ZM288.215 395.905C296.142 403.786 306.909 408.145 318.079 407.999C321.1 408.041 324.111 407.687 327.043 406.957C330.319 406.249 333.486 405.093 336.449 403.52C341.855 400.958 347.996 400.4 353.772 401.952C360.121 403.666 365.532 407.827 368.819 413.525C372.11 419.218 373.006 425.989 371.319 432.343C364.069 458.759 348.371 482.083 326.625 498.744C304.876 515.411 278.276 524.499 250.88 524.629C216.864 526.072 183.729 513.567 159.151 490.004C134.572 466.447 120.672 433.873 120.672 399.827C120.672 365.775 134.573 333.207 159.151 309.644C183.728 286.081 216.864 273.576 250.88 275.019C258.755 274.961 266.615 275.737 274.328 277.331C282.146 278.873 289.801 281.17 297.172 284.201C303.016 286.164 307.844 290.347 310.615 295.852C313.615 301.753 314.125 308.612 312.031 314.899C309.943 321.18 305.427 326.367 299.49 329.3C292.437 332.763 286.51 338.149 282.391 344.831C278.391 351.294 276.271 358.737 276.266 366.336C276.172 377.544 280.615 388.32 288.589 396.2L288.215 395.905Z" fill="black"/>
<path d="M33.1469 173.469C26.8395 175.521 19.975 174.995 14.0589 172C8.13702 169.006 3.64741 163.787 1.56407 157.49C-0.498459 151.224 0.0276769 144.391 3.02768 138.516C6.02768 132.642 11.2569 128.209 17.5437 126.204L393.49 1.28646C399.735 -0.812476 406.563 -0.328074 412.449 2.63019C418.34 5.58859 422.803 10.7761 424.85 17.0422C425.725 19.5891 426.152 22.2662 426.121 24.9589V84.0949C426.121 93.0585 421.335 101.34 413.574 105.819C405.814 110.303 396.251 110.303 388.486 105.819C380.726 101.34 375.944 93.0585 375.944 84.0949V59.3815L33.1469 173.469Z" fill="black"/>
</svg>
